<?xml version="1.0" encoding="UTF-8" standalone="no"?>
<svg xmlns:rdf="http://www.w3.org/1999/02/22-rdf-syntax-ns#" xmlns="http://www.w3.org/2000/svg" height="95" width="95" version="1.1" xmlns:cc="http://creativecommons.org/ns#" xmlns:dc="http://purl.org/dc/elements/1.1/" viewBox="0 0 95.000001 95.000001">
 <g>
  <path d="m17 30h64c1.662 0 3 1.338 3 3v4c0 1.662-1.338 3-3 3h-64c-1.662 0-3-1.338-3-3v-4c0-1.662 1.338-3 3-3z"/>
  <path d="m14 55h64c1.662 0 3 1.338 3 3v4c0 1.662-1.338 3-3 3h-64c-1.662 0-3-1.338-3-3v-4c0-1.662 1.338-3 3-3z"/>
  <path d="m44.706 79.547 17.858-66.649c0.43016-1.6054 2.0689-2.5515 3.6742-2.1213l3.8637 1.0353c1.6054 0.43016 2.5515 2.0689 2.1213 3.6742l-17.858 66.649c-0.43016 1.6054-2.0689 2.5515-3.6742 2.1213l-3.8637-1.0353c-1.6054-0.43016-2.5515-2.0689-2.1213-3.6742z"/>
  <path d="m21.706 79.547 17.858-66.649c0.43016-1.6054 2.0689-2.5515 3.6742-2.1213l3.8637 1.0353c1.6054 0.43016 2.5515 2.0689 2.1213 3.6742l-17.858 66.649c-0.43016 1.6054-2.0689 2.5515-3.6742 2.1213l-3.864-1.035c-1.605-0.43-2.551-2.069-2.121-3.674z"/>
 </g>
</svg>
